<?xml version="1.0" encoding="utf-8"?>
<!-- Generator: Adobe Illustrator 16.0.0, SVG Export Plug-In . SVG Version: 6.00 Build 0)  -->
<!DOCTYPE svg PUBLIC "-//W3C//DTD SVG 1.1//EN" "http://www.w3.org/Graphics/SVG/1.1/DTD/svg11.dtd">
<svg version="1.1" id="Layer_1" xmlns="http://www.w3.org/2000/svg" xmlns:xlink="http://www.w3.org/1999/xlink" x="0px" y="0px"
	 width="498px" height="507px" viewBox="0 0 498 507" enable-background="new 0 0 498 507" xml:space="preserve">
<path fill="none" stroke="#333332" stroke-width="8" stroke-linecap="round" stroke-miterlimit="10" d="M137.864,210.339
	c15.112-15.112,15.112-39.613,0-54.725l-34.737-34.737c-15.112-15.112-39.613-15.112-54.725,0l0.061-0.062l-17.779,17.779
	C-72.443,241.723,266.592,580.752,369.721,477.631l17.779-17.779l-0.063,0.061c15.111-15.111,15.111-39.611,0-54.725l-34.736-34.737
	c-15.113-15.111-39.613-15.111-54.725,0l-14.003,14.003c-11.261,11.261-29.181,11.995-41.494,1.891
	c-42.472-34.854-85.643-78.023-120.496-120.497c-10.104-12.313-9.376-30.226,1.891-41.493L137.864,210.339L137.864,210.339z"/>
<g>
	<path fill="none" stroke="#76A4BD" stroke-width="8" stroke-linecap="round" stroke-miterlimit="10" d="M196.417,145.942
		c82.957,6.254,148.82,73.66,152.583,157.284"/>
	<path fill="none" stroke="#76A4BD" stroke-width="8" stroke-linecap="round" stroke-miterlimit="10" d="M418.677,303.232
		c-3.868-122.113-100.809-220.73-222.26-227.144"/>
	<path fill="none" stroke="#76A4BD" stroke-width="8" stroke-linecap="round" stroke-miterlimit="10" d="M485.831,303.232
		c-3.923-159.2-130.87-287.818-289.415-294.323"/>
</g>
</svg>
